<svg viewBox="0 0 600 128" fill="none" xmlns="http://www.w3.org/2000/svg">
<path d="M143.5 81.0101C144.1 86.9961 149.6 97.1722 165.3 97.1722C179 97.1722 185.6 88.4926 185.6 80.0125C185.6 72.3305 180.4 66.1449 170.1 63.9501L162.7 62.3538C159.8 61.855 157.9 60.2587 157.9 57.6648C157.9 54.6718 160.9 52.477 164.6 52.477C170.6 52.477 172.8 56.3679 173.2 59.4606L185 56.7669C184.4 51.18 179.4 41.7022 164.5 41.7022C153.2 41.7022 144.9 49.484 144.9 58.7622C144.9 66.0452 149.5 72.1309 159.6 74.3258L166.5 75.922C170.5 76.8199 172.1 78.7155 172.1 81.0101C172.1 83.8036 169.9 86.1979 165.2 86.1979C159 86.1979 156 82.4068 155.6 78.2166L143.5 81.0101ZM230.8 95.576H244.3C244.1 93.7802 243.8 90.1886 243.8 86.0982V43.2985H229.7V73.6274C229.7 79.7131 226.1 83.9033 219.8 83.9033C213.2 83.9033 210.2 79.2143 210.2 73.4279V43.2985H196V76.3211C196 87.6944 203.2 96.8729 215.9 96.8729C221.4 96.8729 227.5 94.7778 230.4 89.8893C230.3 92.0842 230.5 94.4785 230.8 95.576ZM273 115.729V90.4879C275.6 93.9797 280.9 96.8729 288.1 96.8729C302.9 96.8729 312.8 85.2003 312.8 69.3375C312.8 53.8737 304 42.201 288.7 42.201C280.8 42.201 275 45.6929 272.6 49.7833V43.3983H258.9V115.729H273ZM298.8 69.4372C298.8 78.8153 293.1 84.2026 285.8 84.2026C278.6 84.2026 272.7 78.7155 272.7 69.4372C272.7 60.159 278.5 54.7716 285.8 54.7716C293 54.7716 298.8 60.159 298.8 69.4372ZM320.7 81.3094C320.7 89.4902 327.5 97.0725 338.7 97.0725C346.5 97.0725 351.5 93.4809 354.1 89.2907C354.1 91.286 354.3 94.1792 354.6 95.576H367.6C367.3 93.7802 367 90.0888 367 87.2954V61.5557C367 51.0803 360.8 41.7022 344.3 41.7022C330.3 41.7022 322.7 50.6812 321.9 58.862L334.4 61.5557C334.8 56.9665 338.2 53.0756 344.4 53.0756C350.4 53.0756 353.2 56.1683 353.2 59.8597C353.2 61.6555 352.2 63.152 349.3 63.551L336.4 65.4466C327.6 66.7435 320.7 71.9314 320.7 81.3094ZM341.7 86.4973C337.1 86.4973 334.9 83.5043 334.9 80.4115C334.9 76.4209 337.8 74.3258 341.4 73.8269L353.2 72.0312V74.3258C353.1 83.7038 347.6 86.4973 341.7 86.4973ZM394.9 95.576V89.1909C397.7 93.6804 403.2 96.8729 410.4 96.8729C425.3 96.8729 435.1 85.1005 435.1 69.2377C435.1 53.7739 426.3 41.9018 411 41.9018C403.2 41.9018 397.5 45.2938 395.2 48.9852V18.6562H381.3V95.4762H394.9V95.576ZM421 69.3375C421 78.915 415.3 84.2026 408 84.2026C400.9 84.2026 394.9 78.8152 394.9 69.3375C394.9 59.7599 400.9 54.5721 408 54.5721C415.2 54.5721 421 59.7599 421 69.3375ZM443.1 81.3094C443.1 89.4902 449.9 97.0725 461.1 97.0725C468.9 97.0725 473.9 93.4809 476.5 89.2907C476.5 91.286 476.7 94.1792 477 95.576H490C489.7 93.7802 489.4 90.0888 489.4 87.2954V61.5557C489.4 51.0803 483.2 41.7022 466.7 41.7022C452.7 41.7022 445.1 50.6812 444.3 58.862L456.8 61.5557C457.2 56.9665 460.6 53.0756 466.8 53.0756C472.8 53.0756 475.6 56.1683 475.6 59.8597C475.6 61.6555 474.6 63.152 471.7 63.551L458.8 65.4466C450 66.7435 443.1 71.9314 443.1 81.3094ZM464 86.4973C459.4 86.4973 457.2 83.5043 457.2 80.4115C457.2 76.4209 460.1 74.3258 463.7 73.8269L475.5 72.0312V74.3258C475.5 83.7038 470 86.4973 464 86.4973ZM499.1 81.0101C499.7 86.9961 505.2 97.1722 520.9 97.1722C534.6 97.1722 541.2 88.4926 541.2 80.0125C541.2 72.3305 536 66.1449 525.7 63.9501L518.3 62.3538C515.4 61.855 513.5 60.2587 513.5 57.6648C513.5 54.6718 516.5 52.477 520.2 52.477C526.2 52.477 528.4 56.3679 528.8 59.4606L540.6 56.7669C540 51.18 535 41.7022 520.1 41.7022C508.8 41.7022 500.5 49.484 500.5 58.7622C500.5 66.0452 505.1 72.1309 515.2 74.3258L522.1 75.922C526.1 76.8199 527.7 78.7155 527.7 81.0101C527.7 83.8036 525.5 86.1979 520.8 86.1979C514.6 86.1979 511.6 82.4068 511.2 78.2166L499.1 81.0101ZM562.7 63.4513C563 58.6625 567.1 53.1753 574.4 53.1753C582.5 53.1753 585.9 58.2634 586.1 63.4513H562.7ZM587.5 77.1192C585.8 81.8082 582.2 85.1005 575.6 85.1005C568.6 85.1005 562.7 80.1122 562.4 73.2283H599.8C599.8 73.0288 600 70.9337 600 68.8386C600 52.0779 590.3 41.802 574.2 41.802C560.8 41.802 548.5 52.6765 548.5 69.3375C548.5 86.9961 561.1 97.272 575.5 97.272C588.4 97.272 596.7 89.6898 599.3 80.7108L587.5 77.1192Z" fill="white"/>
<path d="M5.6 78.1169C2.5 78.1169 0 75.6228 0 72.53C0 71.3328 0.4 70.1356 1.1 69.2377L3.2 66.2447L51.7 0.89789C52.1 0.399059 52.7 0 53.4 0C54.6 0 55.5 0.897902 55.5 2.0951V2.29461V78.0172H5.6V78.1169Z" fill="#3ECF8E"/>
<path d="M105.599 49.8828C108.699 49.8828 111.199 52.377 111.199 55.4697C111.199 56.6669 110.799 57.8641 110.099 58.762L107.999 61.755L59.4992 127.102C59.0992 127.601 58.4992 128 57.7992 128C56.5992 128 55.6992 127.102 55.6992 125.905V125.705V49.8828H105.599Z" fill="url(#paint0_linear_716_117)"/>
<path d="M105.599 49.8828C108.699 49.8828 111.199 52.377 111.199 55.4697C111.199 56.6669 110.799 57.8641 110.099 58.762L107.999 61.755L59.4992 127.102C59.0992 127.601 58.4992 128 57.7992 128C56.5992 128 55.6992 127.102 55.6992 125.905V125.705V49.8828H105.599Z" fill="url(#paint1_linear_716_117)" fill-opacity="0.2"/>
<defs>
<linearGradient id="paint0_linear_716_117" x1="51.2874" y1="76.9615" x2="92.6789" y2="93.151" gradientUnits="userSpaceOnUse">
<stop stop-color="#249361"/>
<stop offset="1" stop-color="#3ECF8E"/>
</linearGradient>
<linearGradient id="paint1_linear_716_117" x1="50.2762" y1="32.3687" x2="70.8783" y2="68.5367" gradientUnits="userSpaceOnUse">
<stop/>
<stop offset="1" stop-opacity="0"/>
</linearGradient>
</defs>
</svg>
